<svg width="22" height="22" viewBox="0 0 22 22" fill="none" xmlns="http://www.w3.org/2000/svg">
<g id="Group 9">
<path id="Vector" d="M17.1343 21.4999H4.36428C2.84428 21.4999 1.45428 20.7299 0.65428 19.4299C-0.14572 18.1299 -0.21572 16.5499 0.46428 15.1799L2.18428 11.7299C2.74428 10.6099 3.64428 9.90993 4.65428 9.79993C5.66428 9.68993 6.69428 10.1899 7.47428 11.1599L7.69428 11.4399C8.13428 11.9799 8.64428 12.2699 9.14428 12.2199C9.64428 12.1799 10.1043 11.8199 10.4443 11.2099L12.3343 7.79993C13.1143 6.38993 14.1543 5.65993 15.2843 5.70993C16.4043 5.76993 17.3643 6.60993 18.0043 8.08993L21.1343 15.3999C21.7143 16.7499 21.5743 18.2899 20.7643 19.5199C19.9643 20.7699 18.6043 21.4999 17.1343 21.4999ZM4.93428 11.2999C4.89428 11.2999 4.85428 11.2999 4.81428 11.3099C4.31428 11.3599 3.85428 11.7599 3.52428 12.4099L1.80428 15.8599C1.35428 16.7499 1.40428 17.7999 1.92428 18.6499C2.44428 19.4999 3.36428 20.0099 4.36428 20.0099H17.1243C18.1043 20.0099 18.9743 19.5399 19.5143 18.7199C20.0543 17.8999 20.1443 16.9199 19.7543 16.0199L16.6243 8.70993C16.2443 7.80993 15.7143 7.25993 15.2043 7.23993C14.7343 7.20993 14.1243 7.70993 13.6443 8.55993L11.7543 11.9699C11.1743 13.0099 10.2643 13.6599 9.27428 13.7499C8.28428 13.8299 7.27428 13.3499 6.52428 12.4099L6.30428 12.1299C5.88428 11.5799 5.40428 11.2999 4.93428 11.2999Z" fill="#8C8C8C"/>
<path id="Vector_2" d="M5.74426 7.5C3.68426 7.5 1.99426 5.82 1.99426 3.75C1.99426 1.68 3.67426 0 5.74426 0C7.81426 0 9.49426 1.68 9.49426 3.75C9.49426 5.82 7.81426 7.5 5.74426 7.5ZM5.74426 1.5C4.50426 1.5 3.49426 2.51 3.49426 3.75C3.49426 4.99 4.50426 6 5.74426 6C6.98426 6 7.99426 4.99 7.99426 3.75C7.99426 2.51 6.98426 1.5 5.74426 1.5Z" fill="#8C8C8C"/>
</g>
</svg>
