<svg width="10" height="11" viewBox="0 0 10 11" fill="none" xmlns="http://www.w3.org/2000/svg">
<path d="M4.768 9.53599C2.13978 9.53599 0 7.39621 0 4.768C0 2.13978 2.13978 0 4.768 0C7.39621 0 9.53599 2.13978 9.53599 4.768C9.53599 7.39621 7.39621 9.53599 4.768 9.53599ZM4.768 0.697755C2.52122 0.697755 0.697755 2.52587 0.697755 4.768C0.697755 7.01012 2.52122 8.83824 4.768 8.83824C7.01477 8.83824 8.83824 7.01012 8.83824 4.768C8.83824 2.52587 7.01477 0.697755 4.768 0.697755Z" fill="#8C8C8C"/>
<path d="M9.65232 10.0012C9.56394 10.0012 9.47556 9.96864 9.40578 9.89886L8.47544 8.96852C8.34054 8.83362 8.34054 8.61034 8.47544 8.47544C8.61034 8.34054 8.83362 8.34054 8.96852 8.47544L9.89886 9.40578C10.0338 9.54068 10.0338 9.76396 9.89886 9.89886C9.82909 9.96864 9.74071 10.0012 9.65232 10.0012Z" fill="#8C8C8C"/>
</svg>
